# xmcd
# Copyright (C) 1995-1998 Ti Kan
#
# Track frame offsets:
#       150
#       16101
#       37537
#       56497
#       74490
#       90908
#       108059
#       127582
#       145344
#       163919
#       180988
#       203582
#       220730
#       240280
#       255736
#       275711
#       288935
#       304617
#       319653
#
# Disc length: 4683 seconds
#
# Revision: 0
# Processed by: cddbd v1.5.1PL2 Copyright (c) Steve Scherf et al.
# Submitted via: CD-Transfer v1.0
#
DISCID=f1124913
DTITLE=Various Sommer - Baila
DYEAR=1900
DGENRE=
TTITLE0=Las Ketchup Asereje
TTITLE1=Mambo King Chihuahua
TTITLE2=Paulina Rubio Vive El Verano
TTITLE3=Gigi `alessio Mon Amour Mon Amour
TTITLE4=King Africa Salta
TTITLE5=Cecilia Gayle El Tipitero
TTITLE6=Dos Y Tres Lo Se
TTITLE7=El Gato Dj Mueve La Colita
TTITLE8=Picante Latino El Meneaito
TTITLE9=Marie Claire Ubaldo The Rhythm Is Magic
TTITLE10=Proyecto Uno El Tiburon
TTITLE11=As Meninas Yibom Bombon
TTITLE12=Los Lobos La Bamba
TTITLE13=Bonitas Laguna Blu
TTITLE14=Ellie Medeiros A Bailar Calypso
TTITLE15=Los Lobos Porompompero Remix
TTITLE16=Shaft Sway
TTITLE17=La Fuertezza Fiesta Flamenca
TTITLE18=Two Man Sound Disco Samba
EXTD=
EXTT0=
EXTT1=
EXTT2=
EXTT3=
EXTT4=
EXTT5=
EXTT6=
EXTT7=
EXTT8=
EXTT9=
EXTT10=
EXTT11=
EXTT12=
EXTT13=
EXTT14=
EXTT15=
EXTT16=
EXTT17=
EXTT18=
PLAYORDER=
